<svg xmlns="http://www.w3.org/2000/svg" viewBox="0 0 461.51 512"><defs><style>.cls-1{fill:#6d1e96;}.cls-2{fill:#531887;}.cls-3{fill:#ce8017;}.cls-4{fill:#c45c16;}.cls-5{fill:#8535ba;}.cls-6{fill:#6f26a8;}.cls-7{fill:#b25719;}</style></defs><g id="Layer_2" data-name="Layer 2"><g id="Layer_1-2" data-name="Layer 1"><path class="cls-1" d="M440,285.05c0,61.61-40.07,146.75-88.51,193.26C330,499,306.83,512,284.8,512A140.52,140.52,0,0,1,245,506.16a86.34,86.34,0,0,0-50.14,0A140.39,140.39,0,0,1,155.15,512c-23.08,0-47.39-14.32-69.74-36.72C38.37,428.18,0,345.34,0,285.05,0,196.11,53.21,142.37,103.24,129.4c24-6.22,51.77-2.21,74.23,3.63a168.27,168.27,0,0,0,70.88,3q7.13-1.23,14.12-3c22.46-5.84,50.26-9.85,74.24-3.63C386.74,142.37,440,196.11,440,285.05Z"/><path class="cls-2" d="M351.44,478.31c-59.44,10.5-105.23,7.59-139.73-.76a139.36,139.36,0,0,1-105.22-118.7C89,214.74,183.15,172.78,183.15,172.78c27.6,12.54,58.63,5.85,58.63,5.85-19.8-19.79,6.58-42.56,6.58-42.56a168.33,168.33,0,0,1-70.89-3c-22.46-5.84-50.26-9.85-74.23-3.63C53.21,142.37,0,196.11,0,285.05S83.5,512,155.15,512a140.39,140.39,0,0,0,39.75-5.84,86.37,86.37,0,0,1,50.15,0A140.39,140.39,0,0,0,284.8,512c22,0,45.16-13,66.65-33.69Z"/><path class="cls-3" d="M461.51,5.51s-12.35,86.11-77.42,111.18c-62.2,24-117.64-40.83-140.38-35.73a9.11,9.11,0,0,0-2.87,1.11l-.05,0,0,0c.76-2.32,25.7-76.62,89.76-81.48C395.63-4.38,431,25.27,461.51,5.51Z"/><path class="cls-4" d="M461.51,5.51S422,53.68,366.39,53.68c-48.88,0-108.91,22-122.68,27.28-1.66.63-2.63,1-2.87,1.11l-.05,0v0c.77-2.32,25.71-76.62,89.76-81.48C395.63-4.38,431,25.27,461.51,5.51Z"/><ellipse class="cls-5" cx="368.63" cy="247.46" rx="28.77" ry="44.46" transform="translate(-22.67 37.67) rotate(-5.68)"/><path class="cls-6" d="M266.05,166.44c0,10.11-15.89,18.54-37,20.45-2.94.28-6,.41-9.09.41s-6.41-.15-9.46-.43c-20.89-2-36.59-10.38-36.59-20.43Z"/><path class="cls-7" d="M255.12,81l-33.78,51.32a281.85,281.85,0,0,1,6.14,34.11c.78,6.6,1.33,13.44,1.59,20.45-2.94.27-6,.41-9.09.41s-6.41-.15-9.46-.43c-.28-7-.88-13.84-1.71-20.43-6.05-48-24.56-83.3-24.78-83.7A9.27,9.27,0,0,1,200.4,74a245.56,245.56,0,0,1,14.22,34.8l25-38A9.26,9.26,0,0,1,255.12,81Z"/></g></g></svg>