<svg height="512" viewBox="0 0 60 60" width="512" xmlns="http://www.w3.org/2000/svg"><g id="006---Bamboo" fill="none"><g id="Icons" transform="translate(0 1)"><path id="Shape" d="m38 17h-16c1.9204584-4.4690866 1.9204584-9.53091335 0-14h16c-1.9204584 4.46908665-1.9204584 9.5309134 0 14z" fill="#90ac00"/><path id="Shape" d="m38 38h-16c1.9203504-5.8463439 1.9203504-12.1536561 0-18h16c-1.9196498 5.846456-1.9196498 12.153544 0 18z" fill="#90ac00"/><path id="Shape" d="m38 55h-16c1.9204584-4.4690866 1.9204584-9.5309134 0-14h16c-1.9204584 4.4690866-1.9204584 9.5309134 0 14z" fill="#90ac00"/><path id="Shape" d="m35 17h-13c1.9204584-4.4690866 1.9204584-9.53091335 0-14h13c-1.9204584 4.46908665-1.9204584 9.5309134 0 14z" fill="#a4c400"/><path id="Shape" d="m35 38h-13c1.9203504-5.8463439 1.9203504-12.1536561 0-18h13c-1.9196498 5.846456-1.9196498 12.153544 0 18z" fill="#a4c400"/><path id="Shape" d="m35 55h-13c1.9204584-4.4690866 1.9204584-9.5309134 0-14h13c-1.9204584 4.4690866-1.9204584 9.5309134 0 14z" fill="#a4c400"/><path id="Shape" d="m59 2.27c-1.3294677 4.24228695-3.579759 8.1384664-6.59 11.41-3.95 3.91-10.17 4.32-12.5 4.32-.1168097-.3520741-.3685717-.6433987-.7-.81 1.1419707-3.9712946 3.2319409-7.60557783 6.09-10.59 3.07-3.07 8.25-4.87 12.53-5.6.3471668-.07603108.7086026.03790795.9494033.29928989s.3247814.63092923.2205967.97071011z" fill="#549414"/><path id="Shape" d="m55.92 1.38c-1.3308401 4.20027857-3.5666999 8.05756329-6.55 11.3-2.92 2.92-7.15 3.89-10.06 4.19 1.1666524-3.8466165 3.2220384-7.36475207 6-10.27 2.92-2.93 7.51-4.49 10.61-5.22z" fill="#60a917"/><path id="Shape" d="m22 41s-1.09 4.86-4.12 7.9c-2 2-5.8 2.85-7.76 3.09-.34920858.0282271-.68772273-.1283554-.89232464-.4127521-.20460191-.2843966-.24544986-.6551274-.10767536-.9772479 1.1249659-2.2566703 2.6074314-4.3165881 4.39-6.1 2.06-2.09 5.83-3.27 8.49-3.5z" fill="#549414"/><path id="Shape" d="m18.84 41.62c-.7440493 2.7067439-2.1142732 5.2005514-4 7.28-1.6227006 1.3802255-3.576793 2.314192-5.67 2.71-.21719548-.2873884-.26303495-.669384-.12-1 1.1249659-2.2566703 2.6074314-4.3165881 4.39-6.1 1.5332209-1.3951981 3.3886481-2.3881953 5.4-2.89z" fill="#60a917"/><path id="Shape" d="m46 47.28c.0347166.2278707-.0577828.4565094-.2411778.5961397-.1833949.1396302-.4284037.167958-.6388222.0738603-1.5165384-.7661514-2.9061361-1.7611303-4.12-2.95-1.0460284-1.1436889-1.7131206-2.5826522-1.91-4.12.3576579-.1481789.6418211-.4323421.79-.79 1.5373478.1968794 2.9763111.8639716 4.12 1.91 1.3 1.3 1.84 4 2 5.28z" fill="#60a917"/><path id="Shape" d="m21 38c-.8724231.0563889-1.7475769.0563889-2.62 0-2.9-.22-7.59-1.09-10.75-4.25-3.03842759-3.2843794-5.3037306-7.2068045-6.63-11.48-.10418468-.3397809-.02020397-.7093282.22059672-.9707101.24080068-.261382.60223651-.375321.94940328-.2992899 2.36197345.4026641 4.67025338 1.0736757 6.88 2-.20613755 1.3727096.42081893 2.7370809 1.5967057 3.4747221 1.1758868.7376411 2.6771272.708301 3.8232943-.0747221l.23.21c3.0393073 3.1955665 5.2083897 7.1171297 6.3 11.39z" fill="#549414"/><path id="Shape" d="m18.38 37.93c-2.9-.22-7.59-1.09-10.75-4.25-2.79070622-3.0212677-4.92854037-6.5854593-6.28-10.47 1.95255864.4142027 3.86119032 1.01358 5.7 1.79-.20613755 1.3727096.42081893 2.7370809 1.59670572 3.4747221 1.17588679.7376411 2.67712718.708301 3.82329428-.0747221 2.6779869 2.6788568 4.7006181 5.9403923 5.91 9.53z" fill="#60a917"/><path id="Shape" d="m50.89 30c-1.9032189-.2312361-3.7587993-.7575461-5.5-1.56.3903487-.3773134.6105374-.8971029.61-1.44-.0231888-.8838466-.6239672-1.6475894-1.477494-1.8782723-.8535268-.230683-1.7572418.12644-2.222506.8782723-1.3922109-1.8470304-2.4390444-3.930534-3.09-6.15.294737-.1463179.5258854-.395247.65-.7 1.67.27 5.36 1.09 7.66 3.39 1.784731 1.7876196 3.2703653 3.8506253 4.4 6.11.1224798.3230433.0695381.6864257-.1400232.9610934s-.546055.4217105-.8899768.3889066z" fill="#60a917"/><g fill="#007900"><path id="Shape" d="m40 1.5c0 .82842712-.6715729 1.5-1.5 1.5h-17c-.8284271 0-1.5-.67157288-1.5-1.5s.6715729-1.5 1.5-1.5h17c.8284271 0 1.5.67157288 1.5 1.5z"/><path id="Shape" d="m39.21 19.81c-.44.27.8.19-17.71.19-.8284271 0-1.5-.6715729-1.5-1.5s.6715729-1.5 1.5-1.5c18.58 0 17.27-.08 17.71.19.4865951.2558132.7913056.760259.7913056 1.31s-.3047105 1.0541868-.7913056 1.31z"/><path id="Shape" d="m39.09 40.88c-.4.18.83.12-17.59.12-.8284271 0-1.5-.6715729-1.5-1.5s.6715729-1.5 1.5-1.5h17c.7131873-.0010108 1.3284754.5002813 1.4716073 1.1989589.1431318.6986776-.2254736 1.4015313-.8816073 1.6810411z"/><path id="Shape" d="m40 56.5c0 .8284271-.6715729 1.5-1.5 1.5h-17c-.8284271 0-1.5-.6715729-1.5-1.5s.6715729-1.5 1.5-1.5h17c.8284271 0 1.5.6715729 1.5 1.5z"/></g></g><path id="Shape" d="m6.92 36.39c3.7 3.7 9.2 4.46 12.14 4.59-.1124661.5064409-.0599023 1.0355825.15 1.51-2.3978826.524808-4.6175326 1.665653-6.44 3.31-1.8707095 1.8693764-3.42439099 4.0310201-4.6 6.4-.29513389.6602162-.21086794 1.4283309.22038172 2.0088593.43124967.5805284 1.1423.8830318 1.85961828.7911407 1.33-.17 5.86-.9 8.33-3.38 1.4801151-1.5530063 2.6419552-3.3806962 3.42-5.38.7348174 3.251135.4912611 6.6470059-.7 9.76-.893164.0357266-1.6994216.5452366-2.1150635 1.3366025-.4156419.791366-.3775221 1.7443606.1 2.5.4775221.7556395 1.3218995 1.1991241 2.2150635 1.1633975h17c1.3807119.0552285 2.5447715-1.0192881 2.6-2.4s-1.0192881-2.5447715-2.4-2.6c-1.3576867-3.5196305-1.4950172-7.3930555-.39-11 .3329597 1.3718129 1.0229787 2.6310976 2 3.65 1.3011923 1.2754034 2.792229 2.3413934 4.42 3.16.527287.221434 1.1318449.1521957 1.595415-.1827183.46357-.334914.7191936-.8871285.674585-1.4572817-.12-1-.64-4.23-2.28-5.87-1.0748141-1.0027474-2.4022374-1.6941137-3.84-2 .2566648-.7231424.1641272-1.5243676-.2506203-2.1699651-.4147475-.6455976-1.1049863-1.062845-1.8693797-1.1300349-1.4700406-4.9346808-1.5599624-10.1778125-.26-15.16.6677067 2.0663549 1.6821881 4.0040144 3 5.73.2048316.2521382.5193756.3890677.8434917.3671948.3241161-.0218728.6174105-.1998221.7865083-.4771948.2276409-.4039809.7031388-.5984728 1.1486395-.4698256.4455006.1286473.7441195.5466809.7213605 1.0098256 0 .75-.73.77-.6 1.59.0518971.3215103.2571057.5976092.55.74 1.8399354.8503299 3.7993655 1.4135396 5.81 1.67.7102942.0837741 1.4112601-.2181234 1.8384071-.7917796.4271469-.5736563.5154509-1.3317445.2315929-1.9882204-1.1726744-2.3737277-2.7266208-4.5391182-4.6-6.41-2.0808542-1.8368856-4.6334274-3.056025-7.37-3.52.1657625-.4086035.2142465-.855349.14-1.29 2.94-.14 8.44-.9 12.13-4.6 3.1020254-3.3894188 5.4171639-7.42213051 6.78-11.81.2167498-.66618517.0691315-1.39721742-.3891406-1.92709457-.4582722-.52987715-1.160385-.78134652-1.8508594-.66290543-2 .33-8.93 1.74-13.07 5.88-2.8307211 2.93919691-4.9395391 6.4961156-6.16 10.39-1.2089999-3.6752227-1.1171989-7.65444118.26-11.27 1.3807119-.05522847 2.4552285-1.21928813 2.4-2.6s-1.2192881-2.45522847-2.6-2.4h-17c-1.3807119-.05522845-2.5447715 1.01928814-2.6 2.4-.0552284 1.38071186 1.0192881 2.54477151 2.4 2.6 1.4697932 3.86498174 1.4697932 8.1350183 0 12-1.3807119-.0165685-2.5134314 1.0892881-2.53 2.47-.0165685 1.3807119 1.0892881 2.5134314 2.47 2.53 1.4700673 4.9244404 1.5600022 10.1579576.26 15.13-1.2345296-3.94014-3.4106405-7.5200826-6.34-10.43-.3405335-.3313452-.8672017-.3773242-1.26-.11-.8216911.5862577-1.9160209.6184474-2.770751.0815016-.8547301-.5369459-1.30073583-1.5367822-1.129249-2.5315016.0630774-.4484293-.18306283-.883277-.6-1.06-2.26926748-.9617058-4.64147647-1.6596117-7.07-2.08-.68344445-.1136632-1.37703251.1344839-1.83326531.6558929-.4562328.5214089-.61011469 1.2417989-.40673469 1.9041071 1.37334867 4.4001006 3.70609855 8.4405736 6.83 11.83zm16.43-13.39h13.3c-1.4399817 5.2361358-1.4399817 10.7638642 0 16h-13.3c1.4399817-5.2361358 1.4399817-10.7638642 0-16zm13.2 33h-13.1c1.3101367-3.8927214 1.3101367-8.1072786 0-12h13.1c-1.3101367 3.8927214-1.3101367 8.1072786 0 12zm-19.38-5.8c-1.61 1.61-4.76 2.5-7.17 2.8 1.0770965-2.1396825 2.4881032-4.094163 4.18-5.79 1.8240366-1.5703734 4.0451847-2.6082931 6.42-3-.693896 2.222444-1.8644654 4.2666746-3.43 5.99zm21.33 8.8h-17c-.2761424 0-.5-.2238576-.5-.5s.2238576-.5.5-.5h17c.2761424 0 .5.2238576.5.5s-.2238576.5-.5.5zm6.4-9.29c-1.1560574-.6765336-2.2270042-1.488976-3.19-2.42-.8071793-.8763097-1.3452404-1.9663175-1.55-3.14 1.1677091.2139295 2.2520661.7509114 3.13 1.55.8837768 1.1734514 1.439448 2.5609038 1.61 4.02zm-6.4-7.71h-17c-.2761424 0-.5-.2238576-.5-.5s.2238576-.5.5-.5h17c.2761424 0 .5.2238576.5.5s-.2238576.5-.5.5zm12.5-10c-1.4208836-.170162-2.8170171-.505771-4.16-1 .4119568-1.1980982.0268518-2.5258344-.9622466-3.3175617-.9890983-.7917272-2.3689392-.8767481-3.4477534-.2124383-.8424338-1.316434-1.5144649-2.7344197-2-4.22 2.3755873.3892118 4.5973821 1.4274337 6.42 3 1.6736234 1.6894546 3.0737541 3.6293947 4.15 5.75zm-27.55-26h13.1c-1.3101367 3.89272136-1.3101367 8.1072786 0 12h-13.1c1.3101367-3.8927214 1.3101367-8.10727864 0-12zm22.55 2.34c3.83-3.82 10.66-5.11 12-5.34-1.2765103 4.08706547-3.4377262 7.842733-6.33 11-3.43 3.42-8.91 4-11.35 4 1.1242779-3.6143946 3.0681235-6.920301 5.68-9.66zm-24.5-5.34h17c.2761424 0 .5.22385763.5.5s-.2238576.5-.5.5h-17c-.2761424 0-.5-.22385763-.5-.5s.2238576-.5.5-.5zm0 17h17c.2761424 0 .5.2238576.5.5s-.2238576.5-.5.5h-17c-.2761424 0-.5-.2238576-.5-.5s.2238576-.5.5-.5zm-13.5 5.65c.04594108 1.4937398.82884119 2.8677217 2.0904718 3.668757 1.2616306.8010352 2.838136.9250887 4.2095282.331243 2.4597856 2.6826026 4.2968541 5.8752774 5.38 9.35-2.44-.06-7.91-.59-11.35-4-2.90169562-3.1503602-5.06419551-6.9082589-6.33-11 2.05178876.3405275 4.06260325.8935015 6 1.65z" fill="#000" transform="translate(0 -1)"/></g></svg>